<?xml version="1.0" standalone="no"?>
<!DOCTYPE svg PUBLIC "-//W3C//DTD SVG 20010904//EN"
 "http://www.w3.org/TR/2001/REC-SVG-20010904/DTD/svg10.dtd">
<svg version="1.0" xmlns="http://www.w3.org/2000/svg"
 width="320.000000pt" height="320.000000pt" viewBox="0 0 320.000000 320.000000"
 preserveAspectRatio="xMidYMid meet">
<metadata>
Created by potrace 1.14, written by Peter Selinger 2001-2017
</metadata>
<g transform="translate(0.000000,320.000000) scale(0.100000,-0.100000)"
fill="#000000" stroke="none">
<path d="M1563 2962 c-18 -9 -33 -19 -33 -23 0 -4 -6 -14 -12 -21 -14 -15 -23
-30 -68 -113 -16 -30 -27 -55 -24 -55 3 0 -4 -12 -15 -26 -11 -15 -18 -30 -15
-35 3 -5 1 -9 -4 -9 -5 0 -16 -15 -23 -32 -7 -18 -19 -39 -26 -46 -7 -8 -11
-18 -8 -23 4 -5 2 -9 -2 -9 -5 0 -16 -15 -24 -32 -38 -81 -83 -163 -91 -166
-4 -2 -8 -10 -8 -18 0 -13 -26 -60 -40 -74 -3 -3 -6 -12 -8 -20 -2 -8 -8 -16
-13 -18 -5 -2 -9 -10 -9 -17 0 -8 -11 -31 -25 -51 -14 -20 -22 -40 -19 -45 3
-5 2 -9 -3 -9 -4 0 -26 -35 -48 -78 -22 -42 -44 -80 -50 -84 -7 -5 -7 -8 0 -8
6 0 6 -3 0 -8 -6 -4 -22 -29 -36 -57 -14 -27 -40 -76 -58 -107 -17 -32 -29
-58 -26 -58 3 0 -3 -10 -15 -22 -18 -20 -25 -39 -21 -61 1 -5 -3 -6 -8 -3 -5
3 -18 -17 -30 -44 -12 -28 -26 -50 -31 -50 -6 0 -9 -3 -8 -7 3 -11 -72 -157
-85 -164 -5 -4 -6 -12 -3 -18 4 -6 4 -11 -1 -11 -4 0 -19 -24 -32 -52 -13 -29
-27 -55 -30 -58 -3 -3 -22 -36 -41 -75 -18 -38 -38 -73 -43 -76 -5 -3 -9 -10
-9 -15 -2 -21 -11 -44 -17 -44 -4 0 -13 -16 -20 -35 -7 -19 -17 -35 -22 -35
-5 0 -9 -6 -9 -14 0 -14 -30 -76 -41 -86 -3 -3 -12 -20 -20 -37 -8 -18 -18
-33 -22 -33 -5 0 -6 -4 -3 -9 3 -5 -1 -14 -9 -21 -8 -7 -12 -16 -9 -21 3 -5 0
-9 -5 -9 -6 0 -11 -6 -11 -14 0 -8 -7 -22 -16 -30 -8 -9 -12 -16 -8 -16 3 0 0
-7 -7 -16 -7 -9 -14 -22 -15 -30 -1 -7 -9 -21 -18 -30 -9 -8 -16 -22 -16 -29
0 -7 -6 -20 -12 -27 -7 -7 -24 -35 -37 -63 -14 -27 -27 -52 -31 -55 -14 -10
-48 -126 -45 -153 5 -39 28 -72 67 -93 28 -15 65 -18 258 -20 124 -2 227 -4
230 -5 3 -1 10 0 15 1 23 5 163 2 173 -4 6 -3 13 -2 17 3 3 7 15 7 30 1 15 -6
27 -6 30 1 4 5 10 7 14 4 13 -7 358 -8 370 -1 6 4 11 3 11 -3 0 -7 8 -7 25 -1
14 5 25 6 25 1 0 -9 30 -8 46 1 5 4 16 3 23 -2 8 -4 27 -4 42 0 16 5 29 6 29
2 0 -8 129 -6 137 1 3 3 15 2 27 -2 25 -9 37 -8 54 2 7 5 12 4 12 -2 0 -7 8
-7 25 -1 14 5 25 6 25 2 0 -8 88 -7 96 1 4 3 16 2 28 -2 25 -9 37 -8 54 2 7 5
12 4 12 -2 0 -7 8 -7 25 -1 14 5 25 6 25 2 0 -8 68 -8 76 1 3 3 16 2 29 -3 13
-5 25 -6 28 -3 8 7 194 6 207 -2 5 -3 10 -3 10 2 0 4 129 8 288 8 203 1 298 4
323 13 43 15 79 51 82 81 1 11 5 21 10 21 4 0 5 6 0 13 -4 6 -6 20 -5 30 2 10
-4 29 -12 43 -9 13 -14 24 -11 24 3 0 -5 17 -18 38 -13 20 -52 91 -87 157 -35
66 -67 122 -72 123 -4 2 -6 7 -3 12 3 5 -1 14 -8 22 -14 14 -31 49 -29 60 1 3
-5 12 -13 18 -8 7 -15 21 -15 30 0 10 -4 20 -8 22 -5 2 -33 50 -63 108 -29 58
-56 107 -59 110 -8 7 -50 99 -49 106 0 4 -3 10 -8 13 -4 3 -19 29 -33 56 -14
28 -27 52 -30 55 -3 3 -16 29 -30 57 -14 29 -28 53 -32 53 -5 0 -8 8 -8 18 0
10 -9 28 -20 40 -12 12 -18 22 -15 22 4 0 -3 16 -15 35 -12 19 -18 35 -13 35
4 0 3 4 -3 8 -10 6 -78 129 -134 240 -9 18 -20 29 -25 25 -4 -4 -5 -2 0 6 4 7
4 16 -1 20 -5 3 -20 30 -34 58 -14 29 -29 53 -33 53 -5 0 -6 4 -3 9 3 5 -4 20
-15 35 -11 14 -17 26 -12 26 4 0 3 4 -3 8 -6 4 -26 36 -45 72 -18 36 -38 68
-44 72 -5 4 -6 8 -1 8 5 0 3 8 -5 18 -8 9 -28 43 -44 75 -16 31 -33 57 -37 57
-4 0 -7 3 -6 8 3 12 -36 92 -45 92 -4 0 -6 4 -2 9 3 5 -2 17 -11 25 -8 9 -12
16 -8 16 4 0 -1 9 -11 20 -10 11 -14 20 -10 20 4 0 0 9 -9 19 -10 11 -18 25
-20 33 -1 7 -9 24 -17 38 -36 57 -59 102 -59 115 0 7 -3 15 -8 17 -4 2 -22 33
-41 70 -18 37 -42 76 -52 87 -11 11 -19 24 -19 29 0 10 -35 22 -75 27 -11 1
-35 -5 -52 -13z"/>
</g>
</svg>
